<svg width="85" height="26" viewBox="0 0 85 26" fill="none" xmlns="http://www.w3.org/2000/svg">
<path d="M3.44574 7.66H7.59374L7.21974 9.768H7.49174C8.01308 8.952 8.76108 8.31733 9.73574 7.864C10.7104 7.388 11.7871 7.15 12.9657 7.15C13.8044 7.15 14.4957 7.27467 15.0397 7.524L14.2577 12.08C13.9177 11.8533 13.4984 11.672 12.9997 11.536C12.5237 11.4 12.0477 11.332 11.5717 11.332C10.2344 11.332 9.08974 11.808 8.13774 12.76C7.20841 13.712 6.60774 14.9133 6.33574 16.364L4.83974 25H0.385742L3.44574 7.66ZM45.9171 25.544C44.6477 25.544 43.5257 25.2947 42.5511 24.796C41.5991 24.2973 40.8851 23.674 40.4091 22.926H40.1371L39.7631 25H35.6151L39.8991 0.655999H44.3191L43.1291 7.32L42.4491 9.768H42.7211C43.1517 9.06533 43.8317 8.45333 44.7611 7.932C45.6904 7.388 46.7671 7.116 47.9911 7.116C49.3284 7.116 50.5524 7.456 51.6631 8.136C52.7737 8.816 53.6464 9.77933 54.2811 11.026C54.9157 12.25 55.2331 13.644 55.2331 15.208C55.2331 17.18 54.8137 18.9593 53.9751 20.546C53.1591 22.11 52.0371 23.334 50.6091 24.218C49.2037 25.102 47.6397 25.544 45.9171 25.544ZM45.2371 21.43C46.2571 21.43 47.1864 21.192 48.0251 20.716C48.8637 20.2173 49.5211 19.5373 49.9971 18.676C50.4957 17.8147 50.7451 16.8287 50.7451 15.718C50.7451 14.902 50.5524 14.154 50.1671 13.474C49.7817 12.794 49.2604 12.2613 48.6031 11.876C47.9457 11.468 47.2317 11.264 46.4611 11.264C45.4184 11.264 44.4891 11.536 43.6731 12.08C42.8797 12.6013 42.2564 13.3153 41.8031 14.222C41.3724 15.106 41.1571 16.0807 41.1571 17.146C41.1571 17.962 41.3384 18.6987 41.7011 19.356C42.0864 20.0133 42.5851 20.5233 43.1971 20.886C43.8317 21.2487 44.5117 21.43 45.2371 21.43ZM63.1551 5.756C62.3617 5.756 61.6817 5.484 61.1151 4.94C60.5484 4.37333 60.2651 3.69333 60.2651 2.9C60.2651 2.10666 60.5484 1.438 61.1151 0.893998C61.6817 0.327332 62.3617 0.0439991 63.1551 0.0439991C63.9484 0.0439991 64.6171 0.327332 65.1611 0.893998C65.7277 1.438 66.0111 2.10666 66.0111 2.9C66.0111 3.69333 65.7277 4.37333 65.1611 4.94C64.6171 5.484 63.9484 5.756 63.1551 5.756ZM60.0611 7.66H64.5151L61.4891 25H57.0351L60.0611 7.66ZM73.3335 9.836C73.9229 8.97467 74.6822 8.306 75.6115 7.83C76.5635 7.354 77.6515 7.116 78.8755 7.116C80.6435 7.116 82.0035 7.61467 82.9555 8.612C83.9075 9.60933 84.3835 10.8787 84.3835 12.42C84.3835 12.9867 84.3269 13.6893 84.2135 14.528L82.3435 25H77.8895L79.6575 15.038C79.7482 14.698 79.7935 14.2673 79.7935 13.746C79.7935 13.0433 79.5442 12.454 79.0455 11.978C78.5469 11.502 77.8895 11.264 77.0735 11.264C75.7589 11.264 74.6935 11.706 73.8775 12.59C73.0615 13.4513 72.5175 14.6413 72.2455 16.16L70.6815 25H66.2275L69.2875 7.66H73.4355L73.0615 9.836H73.3335Z" fill="#203269"/>
<path d="M23.5655 25.544C21.9562 25.544 20.5282 25.1927 19.2815 24.49C18.0348 23.7647 17.0715 22.79 16.3915 21.566C15.7115 20.342 15.3715 18.9707 15.3715 17.452C15.3715 15.5253 15.8022 13.78 16.6635 12.216C17.5248 10.6293 18.7375 9.38267 20.3015 8.476C21.8882 7.56933 23.7015 7.116 25.7415 7.116C27.3508 7.116 28.7788 7.47867 30.0255 8.204C31.2722 8.90667 32.2355 9.87 32.9155 11.094C33.5955 12.318 33.9355 13.6893 33.9355 15.208C33.9355 17.1347 33.5048 18.8913 32.6435 20.478C31.7822 22.042 30.5582 23.2773 28.9715 24.184C27.4075 25.0907 25.6055 25.544 23.5655 25.544ZM24.0755 21.43C25.0502 21.43 25.9455 21.1807 26.7615 20.682C27.6002 20.1833 28.2575 19.492 28.7335 18.608C29.2322 17.724 29.4815 16.7493 29.4815 15.684C29.4815 14.392 29.0962 13.338 28.3255 12.522C27.5548 11.6833 26.5235 11.264 25.2315 11.264C24.2568 11.264 23.3615 11.5133 22.5455 12.012C21.7295 12.5107 21.0722 13.202 20.5735 14.086C20.0975 14.9473 19.8595 15.9107 19.8595 16.976C19.8595 18.268 20.2335 19.3333 20.9815 20.172C21.7522 21.0107 22.7835 21.43 24.0755 21.43Z" fill="#EA8D51"/>
</svg>
