<svg width="85" height="27" viewBox="0 0 85 27" fill="none" xmlns="http://www.w3.org/2000/svg">
<path d="M3.44574 8.35629H7.59374L7.21974 10.4643H7.49174C8.01308 9.64829 8.76108 9.01362 9.73574 8.56029C10.7104 8.08429 11.7871 7.84629 12.9657 7.84629C13.8044 7.84629 14.4957 7.97095 15.0397 8.22029L14.2577 12.7763C13.9177 12.5496 13.4984 12.3683 12.9997 12.2323C12.5237 12.0963 12.0477 12.0283 11.5717 12.0283C10.2344 12.0283 9.08974 12.5043 8.13774 13.4563C7.20841 14.4083 6.60774 15.6096 6.33574 17.0603L4.83974 25.6963H0.385742L3.44574 8.35629ZM45.9171 26.2403C44.6477 26.2403 43.5257 25.991 42.5511 25.4923C41.5991 24.9936 40.8851 24.3703 40.4091 23.6223H40.1371L39.7631 25.6963H35.6151L39.8991 1.35229H44.3191L43.1291 8.01629L42.4491 10.4643H42.7211C43.1517 9.76162 43.8317 9.14962 44.7611 8.62829C45.6904 8.08429 46.7671 7.81229 47.9911 7.81229C49.3284 7.81229 50.5524 8.15229 51.6631 8.83229C52.7737 9.51229 53.6464 10.4756 54.2811 11.7223C54.9157 12.9463 55.2331 14.3403 55.2331 15.9043C55.2331 17.8763 54.8137 19.6556 53.9751 21.2423C53.1591 22.8063 52.0371 24.0303 50.6091 24.9143C49.2037 25.7983 47.6397 26.2403 45.9171 26.2403ZM45.2371 22.1263C46.2571 22.1263 47.1864 21.8883 48.0251 21.4123C48.8637 20.9136 49.5211 20.2336 49.9971 19.3723C50.4957 18.511 50.7451 17.525 50.7451 16.4143C50.7451 15.5983 50.5524 14.8503 50.1671 14.1703C49.7817 13.4903 49.2604 12.9576 48.6031 12.5723C47.9457 12.1643 47.2317 11.9603 46.4611 11.9603C45.4184 11.9603 44.4891 12.2323 43.6731 12.7763C42.8797 13.2976 42.2564 14.0116 41.8031 14.9183C41.3724 15.8023 41.1571 16.777 41.1571 17.8423C41.1571 18.6583 41.3384 19.395 41.7011 20.0523C42.0864 20.7096 42.5851 21.2196 43.1971 21.5823C43.8317 21.945 44.5117 22.1263 45.2371 22.1263ZM63.1551 6.45229C62.3617 6.45229 61.6817 6.18029 61.1151 5.63629C60.5484 5.06962 60.2651 4.38962 60.2651 3.59629C60.2651 2.80295 60.5484 2.13429 61.1151 1.59029C61.6817 1.02362 62.3617 0.740288 63.1551 0.740288C63.9484 0.740288 64.6171 1.02362 65.1611 1.59029C65.7277 2.13429 66.0111 2.80295 66.0111 3.59629C66.0111 4.38962 65.7277 5.06962 65.1611 5.63629C64.6171 6.18029 63.9484 6.45229 63.1551 6.45229ZM60.0611 8.35629H64.5151L61.4891 25.6963H57.0351L60.0611 8.35629ZM73.3335 10.5323C73.9229 9.67096 74.6822 9.00229 75.6115 8.52629C76.5635 8.05029 77.6515 7.81229 78.8755 7.81229C80.6435 7.81229 82.0035 8.31095 82.9555 9.30829C83.9075 10.3056 84.3835 11.575 84.3835 13.1163C84.3835 13.683 84.3269 14.3856 84.2135 15.2243L82.3435 25.6963H77.8895L79.6575 15.7343C79.7482 15.3943 79.7935 14.9636 79.7935 14.4423C79.7935 13.7396 79.5442 13.1503 79.0455 12.6743C78.5469 12.1983 77.8895 11.9603 77.0735 11.9603C75.7589 11.9603 74.6935 12.4023 73.8775 13.2863C73.0615 14.1476 72.5175 15.3376 72.2455 16.8563L70.6815 25.6963H66.2275L69.2875 8.35629H73.4355L73.0615 10.5323H73.3335Z" fill="white"/>
<path d="M23.5655 26.2403C21.9562 26.2403 20.5282 25.889 19.2815 25.1863C18.0348 24.461 17.0715 23.4863 16.3915 22.2623C15.7115 21.0383 15.3715 19.667 15.3715 18.1483C15.3715 16.2216 15.8022 14.4763 16.6635 12.9123C17.5248 11.3256 18.7375 10.079 20.3015 9.17229C21.8882 8.26562 23.7015 7.81229 25.7415 7.81229C27.3508 7.81229 28.7788 8.17496 30.0255 8.90029C31.2722 9.60295 32.2355 10.5663 32.9155 11.7903C33.5955 13.0143 33.9355 14.3856 33.9355 15.9043C33.9355 17.831 33.5048 19.5876 32.6435 21.1743C31.7822 22.7383 30.5582 23.9736 28.9715 24.8803C27.4075 25.787 25.6055 26.2403 23.5655 26.2403ZM24.0755 22.1263C25.0502 22.1263 25.9455 21.877 26.7615 21.3783C27.6002 20.8796 28.2575 20.1883 28.7335 19.3043C29.2322 18.4203 29.4815 17.4456 29.4815 16.3803C29.4815 15.0883 29.0962 14.0343 28.3255 13.2183C27.5548 12.3796 26.5235 11.9603 25.2315 11.9603C24.2568 11.9603 23.3615 12.2096 22.5455 12.7083C21.7295 13.207 21.0722 13.8983 20.5735 14.7823C20.0975 15.6436 19.8595 16.607 19.8595 17.6723C19.8595 18.9643 20.2335 20.0296 20.9815 20.8683C21.7522 21.707 22.7835 22.1263 24.0755 22.1263Z" fill="#EA8D51"/>
</svg>
