<svg width="16" height="16" viewBox="0 0 16 16" fill="none" xmlns="http://www.w3.org/2000/svg">
<path fill-rule="evenodd" clip-rule="evenodd" d="M0.666687 7.99984C0.666687 3.94975 3.94993 0.666504 8.00002 0.666504C12.0501 0.666504 15.3334 3.94975 15.3334 7.99984C15.3334 12.0499 12.0501 15.3332 8.00002 15.3332C3.94993 15.3332 0.666687 12.0499 0.666687 7.99984Z" fill="#15AE73"/>
<path fill-rule="evenodd" clip-rule="evenodd" d="M11.5405 5.36182C11.8008 5.62217 11.8008 6.04428 11.5405 6.30463L7.40242 10.638C7.14207 10.8983 6.71996 10.8983 6.45961 10.638L4.45961 8.63796C4.19926 8.37761 4.19926 7.9555 4.45961 7.69515C4.71995 7.4348 5.14207 7.4348 5.40241 7.69515L6.93101 9.22375L10.5977 5.36182C10.858 5.10147 11.2801 5.10147 11.5405 5.36182Z" fill="white"/>
</svg>
